<svg xmlns="http://www.w3.org/2000/svg" xml:space="preserve" fill-rule="evenodd" stroke-linejoin="round" stroke-miterlimit="2" clip-rule="evenodd" viewBox="0 0 604 180">
  <text x="317.549" y="3025.14" font-family="Helvetica" font-size="12" transform="matrix(5.35875 0 0 5.35876 -1492 -16119.247)">M<tspan x="326.945" y="3025.14">Y</tspan></text>
  <g font-family="&quot;Helvetica-Bold&quot;,&quot;Helvetica&quot;" font-size="12" font-weight="700">
    <text x="317.549" y="3025.14" transform="matrix(5.35875 0 0 5.35876 -1402.12 -16120.521)">C<tspan x="325.615px 334.349px" y="3025.14px 3025.14px">OM</tspan></text>
    <text x="343.745" y="3025.14" transform="matrix(5.35875 0 0 5.35876 -1402.12 -16120.521)">P</text>
    <text x="350.309" y="3025.14" transform="matrix(5.35875 0 0 5.35876 -1402.12 -16120.521)">A<tspan x="358.375px 366.441px" y="3025.14px 3025.14px">NY</tspan></text>
  </g>
  <text x="317.549" y="3025.14" font-family="Helvetica" font-size="12" transform="matrix(3.06835 0 0 3.06836 -760.448 -9155.223)">f<tspan x="320.283px 323.679px 329.753px 335.827px 337.893px 343.967px 350.04px 356.114px 358.848px 368.244px" y="3025.14px 3025.14px 3025.14px 3025.14px 3025.14px 3025.14px 3025.14px 3025.14px 3025.14px 3025.14px">reelogo.me</tspan></text>
  <path fill-rule="nonzero" d="M95.332 149.442c-10.22-5.088-20.448-5.088-30.668 0-10.228 5.088-10.228 12.624 0 22.593 10.22 9.976 20.448 9.976 30.668 0 10.22-9.97 10.22-17.505 0-22.593Zm-35.364-6.064c-10.22 5.088-15.685 1.937-16.388-9.459-.703-11.403 2.463-16.883 9.496-16.447 7.032.429 12.498 3.587 16.387 9.459 3.89 5.872.725 11.359-9.495 16.447Zm56.448-9.459c-.702 11.396-6.168 14.547-16.388 9.459-10.22-5.088-13.385-10.575-9.495-16.447 3.89-5.872 9.355-9.03 16.388-9.459 7.033-.436 10.198 5.044 9.495 16.447Zm22.933-27.599c-9.518 6.308-14.628 15.16-15.33 26.564-.703 11.396 5.82 15.16 19.567 11.292 13.748-3.867 18.858-12.72 15.33-26.556-3.527-13.844-10.042-17.608-19.567-11.3ZM35.978 132.884c-.703-11.404-5.813-20.256-15.33-26.564-9.526-6.308-16.049-2.544-19.569 11.3-3.527 13.837 1.583 22.689 15.33 26.556 13.749 3.868 20.271.104 19.569-11.292Zm49.859-18.414a23.305 23.305 0 0 0-11.678 0c-3.897.99-3.897 4.43 0 10.301 3.89 5.872 7.788 5.872 11.678 0 3.89-5.872 3.89-9.31 0-10.301Zm-24.323-7.3c-1.088-3.867-3.033-7.232-5.835-10.109-2.81-2.877-5.783-1.161-8.919 5.147-3.143 6.308-1.198 9.68 5.835 10.117 7.033.429 10.006-1.287 8.919-5.155Zm42.803-10.109c-2.802 2.877-4.747 6.242-5.834 10.11-1.088 3.867 1.885 5.583 8.918 5.154 7.033-.436 8.978-3.809 5.835-10.117-3.143-6.308-6.116-8.024-8.919-5.147Zm32.133-16.765c9.518 6.308 9.518 12.616 0 18.925-9.525 6.308-15.856 6.308-18.991 0-3.143-6.309-3.143-12.617 0-18.925 3.135-6.308 9.466-6.308 18.991 0ZM23.546 99.221c-9.518-6.309-9.518-12.617 0-18.925s15.848-6.308 18.991 0c3.143 6.308 3.143 12.616 0 18.925-3.143 6.308-9.473 6.308-18.99 0Zm74.937-26.875a23.318 23.318 0 0 0 5.834 10.117c2.803 2.87 5.776 1.153 8.92-5.155 3.142-6.308 1.197-9.68-5.836-10.11-7.033-.435-10.006 1.28-8.918 5.148ZM55.679 82.463a23.318 23.318 0 0 0 5.835-10.117c1.087-3.868-1.886-5.583-8.92-5.147-7.032.429-8.977 3.801-5.834 10.11 3.136 6.307 6.108 8.023 8.919 5.154Zm68.34-35.823c.702 11.396 5.812 20.248 15.33 26.556 9.525 6.309 16.04 2.544 19.568-11.292 3.527-13.844-1.583-22.696-15.33-26.564-13.748-3.868-20.271-.104-19.568 11.3ZM20.647 73.196c9.518-6.308 14.628-15.16 15.33-26.556.703-11.404-5.82-15.168-19.567-11.3C2.662 39.208-2.448 48.06 1.08 61.904c3.52 13.836 10.042 17.6 19.567 11.292Zm53.512-8.15c3.89.992 7.788.992 11.678 0 3.89-.99 3.89-4.422 0-10.3-3.89-5.873-7.788-5.873-11.678 0-3.897 5.878-3.897 9.31 0 10.3Zm25.87-28.907c10.22-5.088 15.685-1.93 16.387 9.466.703 11.396-2.462 16.883-9.495 16.447-7.033-.437-12.498-3.587-16.388-9.466-3.89-5.872-.725-11.352 9.495-16.447ZM43.58 45.605c.703-11.396 6.168-14.554 16.388-9.466 10.22 5.095 13.385 10.575 9.495 16.447-3.89 5.88-9.355 9.03-16.387 9.466-7.033.436-10.199-5.051-9.496-16.447Zm21.084-15.53c10.22 5.095 20.448 5.095 30.668 0 10.22-5.088 10.22-12.617 0-22.593-10.22-9.969-20.448-9.969-30.668 0-10.228 9.976-10.228 17.505 0 22.593Z"/>
</svg>
